<?xml version="1.0" standalone="no"?><!DOCTYPE svg PUBLIC "-//W3C//DTD SVG 1.1//EN" "http://www.w3.org/Graphics/SVG/1.1/DTD/svg11.dtd"><svg t="1695285518621" class="icon" viewBox="0 0 1024 1024" version="1.1" xmlns="http://www.w3.org/2000/svg" p-id="10314" xmlns:xlink="http://www.w3.org/1999/xlink" width="200" height="200"><path d="M503.466667 610.133333l29.866666 29.866667 29.866667-29.866667 115.2-115.2-29.866667-29.866666-115.2 115.2-115.2-115.2-29.866666 29.866666 115.2 115.2zM533.333333 170.666667C332.8 170.666667 170.666667 332.8 170.666667 533.333333S332.8 896 533.333333 896s362.666667-162.133333 362.666667-362.666667S733.866667 170.666667 533.333333 170.666667z m0 42.666666c174.933333 0 320 145.066667 320 320S708.266667 853.333333 533.333333 853.333333 213.333333 708.266667 213.333333 533.333333 358.4 213.333333 533.333333 213.333333z" fill="#2c2c2c" p-id="10315"></path></svg>