<?xml version="1.0" standalone="no"?><!DOCTYPE svg PUBLIC "-//W3C//DTD SVG 1.1//EN" "http://www.w3.org/Graphics/SVG/1.1/DTD/svg11.dtd"><svg t="1691303349838" class="icon" viewBox="0 0 1062 1024" version="1.1" xmlns="http://www.w3.org/2000/svg" p-id="10259" xmlns:xlink="http://www.w3.org/1999/xlink" width="207.421875" height="200"><path d="M184 976.8c-33.6 0-53.6-27.2-53.6-52.8V470.4h-36c-33.6 0-53.6-27.2-53.6-52.8V331.2c0-32.8 28-52.8 53.6-52.8h107.2l108.8-186.4c15.2-28 47.2-44.8 82.4-44.8 16.8 0 33.6 4 48.8 11.2l172 98.4L744 123.2c8.8-2.4 17.6-3.2 25.6-3.2 41.6 0 78.4 28 92 69.6l28.8 88.8h77.6c26.4 0 48 24 53.6 46.4v88c0 32.8-28 52.8-53.6 52.8h-34.4v457.6c0 32.8-28 52.8-53.6 52.8H184z m686.4-63.2V464.8H193.6v448.8h676.8z m83.2-509.6V336H103.2v68h850.4zM710.4 279.2L531.2 178.4 472 279.2h238.4z m-308.8 0l73.6-130.4-68-39.2c-4.8-2.4-9.6-3.2-14.4-3.2-12.8 0-24.8 6.4-31.2 17.6L270.4 279.2h88l-44.8-27.2 30.4-48.8 50.4 29.6-28 46.4h35.2z m420-2.4l-17.6-68.8c-3.2-15.2-20.8-24-36-24-2.4 0-4.8 0-7.2 0.8l-77.6 19.2v5.6l36 20 54.4-18.4 16 49.6 32 16z m-419.2 400c-32 0-53.6-20.8-53.6-52.8v-43.2c0-32.8 28-52.8 53.6-52.8h263.2c33.6 0 53.6 27.2 53.6 52.8V624c0 32.8-28 52.8-53.6 52.8H402.4z m254.4-56.8v-25.6H411.2v25.6h245.6zM358.4 177.6l32.8-49.6 48.8 29.6-30.4 50.4-51.2-30.4z" p-id="10260"></path></svg>