<?xml version="1.0" standalone="no"?><!DOCTYPE svg PUBLIC "-//W3C//DTD SVG 1.1//EN" "http://www.w3.org/Graphics/SVG/1.1/DTD/svg11.dtd"><svg t="1691301321215" class="icon" viewBox="0 0 1024 1024" version="1.1" xmlns="http://www.w3.org/2000/svg" p-id="6855" xmlns:xlink="http://www.w3.org/1999/xlink" width="200" height="200"><path d="M761 645H261c-2.8 0-5-2.2-5-5V298c0-2.8 2.2-5 5-5h500c2.8 0 5 2.2 5 5v342c0 2.8-2.2 5-5 5z" fill="#2c2c2c" p-id="6856"></path><path d="M932 711H90c-14.3 0-26 11.7-26 26v81c0 14.3 11.7 26 26 26h842c14.3 0 26-11.7 26-26v-81c0-14.3-11.7-26-26-26z m-16 91H106v-49h810v49zM153 679c11.6 0 21-9.4 21-21V213h673v445c0 11.6 9.4 21 21 21s21-9.4 21-21V197c0-14.3-11.7-26-26-26H158c-14.3 0-26 11.7-26 26v461c0 11.6 9.4 21 21 21z" fill="#2c2c2c" p-id="6857"></path></svg>