<?xml version="1.0" standalone="no"?><!DOCTYPE svg PUBLIC "-//W3C//DTD SVG 1.1//EN" "http://www.w3.org/Graphics/SVG/1.1/DTD/svg11.dtd"><svg t="1695277761284" class="icon" viewBox="0 0 1024 1024" version="1.1" xmlns="http://www.w3.org/2000/svg" p-id="4007" xmlns:xlink="http://www.w3.org/1999/xlink" width="200" height="200"><path d="M512 597.333333h85.333333v42.666667h-85.333333v42.666667h-42.666667v-42.666667H384v-42.666667h85.333333v-42.666666H384v-42.666667h85.333333L362.666667 405.333333l29.866666-29.866666 98.133334 98.133333 98.133333-98.133333 29.866667 29.866666L512 512h85.333333v42.666667h-85.333333v42.666666z m341.333333-170.666666v42.666666c-25.6 8.533333-42.666667 34.133333-42.666666 59.733334s17.066667 51.2 42.666666 59.733333V810.666667H128v-217.6c25.6-8.533333 42.666667-34.133333 42.666667-59.733334s-17.066667-51.2-42.666667-59.733333V256h725.333333v170.666667z m-42.666666 21.333333V298.666667H170.666667v149.333333c25.6 21.333333 42.666667 51.2 42.666666 85.333333s-17.066667 64-42.666666 85.333334V768h640v-149.333333c-25.6-21.333333-42.666667-51.2-42.666667-85.333334s17.066667-64 42.666667-85.333333z" fill="#d81e06" p-id="4008"></path></svg>